<svg width="181" height="119" viewBox="0 0 181 119" fill="none" xmlns="http://www.w3.org/2000/svg">
<g clip-path="url(#clip0_534_969)">
<path d="M54.8724 -12.7335L90.3647 32.7337L148.039 31.8982M68.249 78.8989L90.3867 32.6879M129.626 74.0316L147.195 37.3562C147.964 35.7474 148.226 33.9316 147.956 32.0908C147.687 30.2501 146.894 28.4493 145.659 26.8689L117.092 -9.36241C115.855 -10.9443 114.217 -12.2496 112.344 -13.147C110.471 -14.0445 108.428 -14.5024 106.42 -14.4749L60.283 -14.0307C58.2772 -14.0032 56.3772 -13.4921 54.7738 -12.5487C53.1704 -11.6054 51.9198 -10.2629 51.1476 -8.65589L33.5781 28.0196C32.8097 29.6284 32.5472 31.4442 32.8169 33.2849C33.0866 35.1256 33.879 36.9265 35.1146 38.5068L63.6817 74.7382C64.9185 76.3201 66.5559 77.6254 68.4292 78.5228C70.3025 79.4202 72.3458 79.8782 74.3536 79.8506L120.49 79.4065C122.496 79.379 124.396 78.8679 126 77.9245C127.603 76.9811 128.853 75.6386 129.626 74.0316Z" stroke="#1E1E1E" stroke-opacity="0.1" stroke-width="4" stroke-linecap="round" stroke-linejoin="round"/>
</g>
<defs>
<clipPath id="clip0_534_969">
<rect width="142" height="122" fill="white" transform="translate(52.709 -53) rotate(25.597)"/>
</clipPath>
</defs>
</svg>
