<svg width="146" height="81" viewBox="0 0 146 81" fill="none" xmlns="http://www.w3.org/2000/svg">
<g clip-path="url(#clip0_534_968)">
<path d="M24.9232 61.2893L72.8285 67.5681L106.825 33.2377M86.6959 108.057L72.8147 67.5279M120.541 69.1512L109.524 36.9855C109.039 35.5759 108.13 34.3397 106.889 33.4008C105.647 32.4619 104.117 31.8534 102.451 31.6363L64.1064 26.7998C62.4384 26.5824 60.6934 26.765 59.0465 27.329C57.3997 27.8931 55.9092 28.8187 54.7247 30.013L27.3973 57.3421C26.214 58.5352 25.3779 59.9544 24.9727 61.4572C24.5675 62.9601 24.6076 64.4938 25.0889 65.9046L36.1057 98.0703C36.5903 99.4798 37.499 100.716 38.7405 101.655C39.982 102.594 41.5126 103.202 43.1789 103.419L81.5231 108.256C83.191 108.473 84.9361 108.291 86.5829 107.727C88.2297 107.163 89.7203 106.237 90.9047 105.043L118.232 77.7136C119.415 76.5205 120.252 75.1014 120.657 73.5985C121.062 72.0956 121.022 70.5619 120.541 69.1512Z" stroke="#1E1E1E" stroke-opacity="0.1" stroke-width="4" stroke-linecap="round" stroke-linejoin="round"/>
</g>
<defs>
<clipPath id="clip0_534_968">
<rect width="119" height="102" fill="white" transform="translate(0 38.5588) rotate(-18.9064)"/>
</clipPath>
</defs>
</svg>
