<svg width="146" height="136" viewBox="0 0 146 136" fill="none" xmlns="http://www.w3.org/2000/svg">
<g clip-path="url(#clip0_534_967)">
<path d="M24.9242 61.2894L72.8295 67.5682L106.826 33.2379M86.6969 108.057L72.8157 67.528M120.542 69.1513L109.525 36.9856C109.04 35.576 108.131 34.3398 106.89 33.4009C105.648 32.462 104.118 31.8535 102.452 31.6364L64.1073 26.7999C62.4394 26.5826 60.6943 26.7651 59.0475 27.3292C57.4007 27.8932 55.9101 28.8189 54.7257 30.0131L27.3983 57.3423C26.215 58.5353 25.3788 59.9545 24.9737 61.4574C24.5685 62.9602 24.6086 64.494 25.0899 65.9047L36.1066 98.0704C36.5913 99.48 37.5 100.716 38.7415 101.655C39.9829 102.594 41.5136 103.202 43.1799 103.42L81.524 108.256C83.192 108.473 84.937 108.291 86.5839 107.727C88.2307 107.163 89.7212 106.237 90.9057 105.043L118.233 77.7137C119.416 76.5207 120.253 75.1015 120.658 73.5986C121.063 72.0958 121.023 70.562 120.542 69.1513Z" stroke="#1E1E1E" stroke-opacity="0.1" stroke-width="4" stroke-linecap="round" stroke-linejoin="round"/>
</g>
<defs>
<clipPath id="clip0_534_967">
<rect width="119" height="102" fill="white" transform="translate(0 38.5588) rotate(-18.9064)"/>
</clipPath>
</defs>
</svg>
