<svg xmlns="http://www.w3.org/2000/svg" version="1.0" width="54.000000pt" height="50.000000pt" viewBox="0 0 54.000000 50.000000" preserveAspectRatio="xMidYMid meet">

<g transform="translate(0.000000,50.000000) scale(0.100000,-0.100000)" fill="#0000b8" stroke="none">
<path d="M219 472 c-119 -62 -158 -225 -76 -319 102 -116 282 -59 303 98 10 73 -36 139 -96 139 -37 0 -50 -18 -50 -67 0 -39 -2 -43 -25 -43 -22 0 -25 4 -25 36 0 28 -3 35 -17 32 -16 -3 -18 -15 -18 -93 0 -78 2 -90 18 -93 14 -3 17 4 17 43 0 42 2 46 23 43 18 -2 23 -10 25 -45 2 -29 8 -43 18 -43 11 0 14 19 14 95 0 84 2 95 18 95 23 0 37 -10 51 -37 37 -71 -24 -170 -112 -180 -85 -10 -147 49 -147 140 0 113 75 187 188 187 147 0 222 -186 131 -323 -60 -91 -180 -122 -285 -73 -85 39 -134 127 -134 238 0 42 -3 49 -18 46 -14 -3 -17 -14 -17 -63 0 -151 103 -270 244 -282 110 -10 202 39 256 137 38 71 42 171 8 235 -62 117 -181 156 -294 97z" fill="#0000b8"/>
</g>
</svg>